<?xml version="1.0" encoding="UTF-8"?>
<svg version="1.1" xmlns="http://www.w3.org/2000/svg" width="500" height="500">
<path d="M0 0 C18.46437209 -0.07037603 36.92870892 -0.12312724 55.39318657 -0.15543652 C63.9683877 -0.17084332 72.54350503 -0.19181304 81.11865234 -0.22631836 C88.60098938 -0.25641175 96.08326567 -0.27561983 103.56566155 -0.28226548 C107.52006633 -0.28614433 111.47429749 -0.29512755 115.42864609 -0.31719017 C149.46438411 -0.49939799 178.48576961 2.83073259 203.9375 27.75 C210 34.02697524 210 34.02697524 210 37 C210.66 37 211.32 37 212 37 C223.65458351 51.91927106 226.89424586 71.1832636 227.5625 89.5 C227.60568359 90.60859375 227.64886719 91.7171875 227.69335938 92.859375 C227.79862214 95.57281506 227.90075846 98.28633417 228 101 C227.67 101 227.34 101 227 101 C226.76216797 102.19882813 226.76216797 102.19882813 226.51953125 103.421875 C223.55937963 117.35584839 218.49261451 131.97931717 208 142 C207.23300781 142.80179688 206.46601563 143.60359375 205.67578125 144.4296875 C200.79748005 149.47731816 195.89835707 153.76310674 190.03125 157.625 C187.89869968 158.97517931 187.89869968 158.97517931 186 161 C176.72157964 166.12215635 167.2710844 168.75855668 157 171 C157 173.67119517 157.94064379 174.32803614 159.6875 176.3125 C160.23277344 176.93382812 160.77804687 177.55515625 161.33984375 178.1953125 C162.76050109 179.73965059 164.24925716 181.22086496 165.75 182.6875 C168 185 168 185 169.0625 187.1875 C169.84954347 189.1567946 169.84954347 189.1567946 171.84765625 189.87890625 C174.33824294 191.17618099 175.59321064 192.59177626 177.375 194.75 C179.62858859 197.42704908 181.91287165 199.95183425 184.4375 202.375 C187 205 187 205 187 207 C187.99 207.33 188.98 207.66 190 208 C191.47265625 209.4609375 191.47265625 209.4609375 193.0625 211.375 C196.06372551 214.91375844 199.12741584 218.37993668 202.25 221.8125 C203.08015625 222.72644531 203.9103125 223.64039063 204.765625 224.58203125 C206.03692232 225.95778831 207.32230984 227.32154607 208.6484375 228.64453125 C210.46537941 230.46672443 212.04394842 232.47357518 213.6796875 234.45703125 C216.46056857 237.70687747 219.59506397 240.6138982 222.6875 243.5625 C224.74993022 245.73641293 225.76734864 247.33769821 227 250 C216.90777181 250.30251356 206.81663791 250.53283698 196.72078323 250.67355824 C192.03145399 250.74113598 187.34524689 250.83261426 182.65771484 250.98071289 C178.12513862 251.12300343 173.59554411 251.19989744 169.06090546 251.23340416 C167.33987236 251.25724663 165.61898507 251.30381269 163.89923859 251.37449074 C149.76696075 251.93167395 149.76696075 251.93167395 144.3614502 247.21054077 C141.72556155 244.53814365 139.43329616 241.66967858 137.22670746 238.63760948 C135.33814778 236.11645156 133.20991316 233.86577287 131.0625 231.5625 C122 221.42897727 122 221.42897727 122 219 C120.68 218.34 119.36 217.68 118 217 C118 216.34 118 215.68 118 215 C117.01 214.67 116.02 214.34 115 214 C110 208.53488372 110 208.53488372 110 206 C109.42894531 205.77570313 108.85789062 205.55140625 108.26953125 205.3203125 C105.34057404 203.61637526 103.77581107 201.53824573 101.6875 198.875 C97.08481501 193.10085988 92.47194012 187.41700812 87.1875 182.25 C85 180 85 180 83.9375 177.8125 C83.1518186 175.84573904 83.1518186 175.84573904 81.16796875 175.12890625 C78.62478061 173.80461549 77.23525622 172.29666475 75.375 170.125 C74.48941406 169.10792969 74.48941406 169.10792969 73.5859375 168.0703125 C72.08681913 166.11333531 71.01430932 164.23951463 70 162 C69.34 162 68.68 162 68 162 C66.73046875 160.77734375 66.73046875 160.77734375 65.1875 158.9375 C64.26904297 157.85662109 64.26904297 157.85662109 63.33203125 156.75390625 C62.56246094 155.84511719 61.79289062 154.93632812 61 154 C58.79682973 151.45384665 56.58497855 148.91524462 54.375 146.375 C51.30184604 142.83923039 48.23682303 139.3006219 45.25 135.69140625 C42.4849387 132.38389369 39.45769086 129.42265021 36.375 126.4140625 C31.18778898 121.29632305 26.05204951 116.07807426 22 110 C21.67 156.2 21.34 202.4 21 250 C1.86 250 -17.28 250 -37 250 C-37 180.7 -37 111.4 -37 40 C-20 40 -20 40 -15.671875 43.76171875 C-14.12890625 46.15429688 -14.12890625 46.15429688 -12.75 48.6875 C-11.74840575 50.318631 -10.7432757 51.94759687 -9.734375 53.57421875 C-9.27675781 54.3439502 -8.81914062 55.11368164 -8.34765625 55.90673828 C-5.15736422 60.86209406 -0.71827435 64.97469365 5.06469727 66.56933594 C9.20346946 67.17657158 13.28733548 67.13571552 17.46484375 67.140625 C19.3352987 67.15894647 21.20574176 67.17851617 23.07617188 67.19921875 C26.01021558 67.22820788 28.94348915 67.25000099 31.87768555 67.25048828 C34.71992503 67.25382732 37.56040978 67.28839018 40.40234375 67.328125 C41.2743895 67.3210553 42.14643524 67.3139856 43.04490662 67.30670166 C49.10657093 67.42741875 51.75759155 68.64298778 56 73 C57.01661174 74.11274524 58.00393 75.25422131 58.9375 76.4375 C60.96927853 78.89367091 63.04034088 80.97280842 65.5 83 C68.54344052 85.50950358 70.96523901 88.2450771 73.46875 91.28125 C75.03710099 93.04164397 76.68228889 94.50118557 78.5 96 C80.91525522 97.99245343 82.94970117 100.01874207 84.9375 102.4375 C87.65417423 105.73528101 90.67316661 108.4231898 93.97265625 111.12890625 C96 113 96 113 98.02099609 116.06713867 C99.65359055 118.02850182 100.58559192 118.88554904 103.06462097 119.57020569 C105.62419425 119.79459621 108.12212491 119.83158588 110.69140625 119.796875 C111.63249741 119.80261536 112.57358856 119.80835571 113.54319763 119.81427002 C115.53443813 119.81834737 117.52575908 119.80731416 119.5168457 119.78222656 C122.52938758 119.75035037 125.536462 119.78179056 128.54882812 119.8203125 C139.82010684 119.84453696 150.2068069 119.70099501 158.74487305 111.27880859 C159.89309535 109.90289176 160.95837289 108.45827795 162 107 C162.66 107 163.32 107 164 107 C167.86389071 95.84574947 169.90208522 86.22959948 165 75 C159.98634775 66.64391292 153.40326359 61.52781595 144 59 C141.30538967 59.0719131 138.79173636 59.25009821 136.12939453 59.56982422 C134.53127163 59.73297537 132.93283228 59.89304806 131.33413696 60.05049133 C130.48924335 60.13523523 129.64434975 60.21997913 128.7738533 60.30729103 C63.96459857 66.37822366 63.96459857 66.37822366 41.92892456 49.14764404 C34.91156841 43.29315746 28.58006132 36.87446686 22.5 30.0625 C21.60793728 29.06523014 21.60793728 29.06523014 20.69785309 28.04781342 C0 4.70990143 0 4.70990143 0 0 Z " fill="#0D264C" transform="translate(156,98)"/>
<path d="M0 0 C17 0 17 0 21.328125 3.76171875 C22.87109375 6.15429688 22.87109375 6.15429688 24.25 8.6875 C25.25159425 10.318631 26.2567243 11.94759687 27.265625 13.57421875 C27.72324219 14.3439502 28.18085938 15.11368164 28.65234375 15.90673828 C31.84263578 20.86209406 36.28172565 24.97469365 42.06469727 26.56933594 C46.20346946 27.17657158 50.28733548 27.13571552 54.46484375 27.140625 C56.3352987 27.15894647 58.20574176 27.17851617 60.07617188 27.19921875 C63.01021558 27.22820788 65.94348915 27.25000099 68.87768555 27.25048828 C71.71992503 27.25382732 74.56040978 27.28839018 77.40234375 27.328125 C78.2743895 27.3210553 79.14643524 27.3139856 80.04490662 27.30670166 C86.10657093 27.42741875 88.75759155 28.64298778 93 33 C94.01661174 34.11274524 95.00393 35.25422131 95.9375 36.4375 C97.96927853 38.89367091 100.04034088 40.97280842 102.5 43 C104.93745289 45.00982958 106.99017042 47.06254711 109 49.5 C110.99245343 51.91525522 113.01874207 53.94970117 115.4375 55.9375 C119.38577134 59.2071622 122.94425244 62.87613399 126 67 C126 67.66 126 68.32 126 69 C103.89 69.33 81.78 69.66 59 70 C58.67 116.2 58.34 162.4 58 210 C38.86 210 19.72 210 0 210 C0 140.7 0 71.4 0 0 Z " fill="#0F4F9E" transform="translate(119,138)"/>
<path d="M0 0 C18.46437209 -0.07037603 36.92870892 -0.12312724 55.39318657 -0.15543652 C63.9683877 -0.17084332 72.54350503 -0.19181304 81.11865234 -0.22631836 C88.60098938 -0.25641175 96.08326567 -0.27561983 103.56566155 -0.28226548 C107.52006633 -0.28614433 111.47429749 -0.29512755 115.42864609 -0.31719017 C154.55204057 -0.52697206 154.55204057 -0.52697206 170.6875 5.9375 C171.31076172 6.17662109 171.93402344 6.41574219 172.57617188 6.66210938 C176.97420312 8.400226 180.94740115 10.59133085 185 13 C181.49622334 14.19097671 181.12124467 14.05845725 177.5 12.3125 C176.79617188 11.93867187 176.09234375 11.56484375 175.3671875 11.1796875 C156.11079666 1.5832683 134.03308036 2.52856501 113.10676527 2.49388909 C109.2590743 2.48438716 105.41149418 2.45817629 101.56387329 2.43388367 C94.3077635 2.39053521 87.05167561 2.36179535 79.79547656 2.33856028 C71.52187465 2.31133688 63.24838604 2.26743743 54.97486567 2.22227156 C37.9833025 2.12987975 20.99171474 2.05799311 4 2 C4 2.66 4 3.32 4 4 C4.60328125 4.08894531 5.2065625 4.17789063 5.828125 4.26953125 C8.58613105 5.197134 9.18509283 6.27109923 10.75 8.6875 C13.44324356 12.51258768 16.30046614 14.89426643 20.109375 17.5546875 C22.90265584 19.69004682 24.81642686 22.25493663 27 25 C27.99 25.66 28.98 26.32 30 27 C30 27.99 30 28.98 30 30 C30.61875 30.309375 31.2375 30.61875 31.875 30.9375 C33.25 31.625 34.625 32.3125 36 33 C36 33.66 36 34.32 36 35 C36.66 35 37.32 35 38 35 C38 35.99 38 36.98 38 38 C38.639375 38.268125 39.27875 38.53625 39.9375 38.8125 C42 40 42 40 43 43 C44.33102815 43.34242218 45.66466242 43.67478863 47 44 C48.4921875 45.453125 48.4921875 45.453125 49.875 47.25 C53.63617692 52.10729134 56.74532752 55.67013962 62.92585754 56.57435608 C64.42837266 56.57663994 65.9310927 56.55156223 67.43286133 56.50415039 C68.25808792 56.49845535 69.08331451 56.49276031 69.93354797 56.4868927 C71.71787946 56.47126612 73.50213942 56.44402678 75.28614235 56.40638924 C78.11631073 56.34693614 80.94534741 56.31834542 83.77604675 56.29747009 C89.78869569 56.24724649 95.80039687 56.15619356 101.8125 56.0625 C108.77227143 55.95828223 115.73174755 55.87100144 122.69208336 55.81518364 C125.4693394 55.78568929 128.24534238 55.7311096 131.02217102 55.67506409 C146.84844107 55.46114098 146.84844107 55.46114098 154 60 C156.34306706 61.23241673 158.47460976 62.15820325 161 63 C161.33 63.66 161.66 64.32 162 65 C162.66 65.33 163.32 65.66 164 66 C166.39982029 70.383068 168.35753223 75.02087479 169 80 C168.34 80 167.68 80 167 80 C166.195625 78.2365625 166.195625 78.2365625 165.375 76.4375 C160.5248032 66.90551601 154.11344848 62.37114949 144 59 C141.47033708 59.16633308 138.98644341 59.39813489 136.4699707 59.68334961 C64.77702201 67.02019251 64.77702201 67.02019251 41.91532898 49.14311218 C34.90168142 43.290447 28.57556651 36.87301062 22.5 30.0625 C21.90549168 29.39772015 21.31098335 28.73294029 20.69845963 28.04801559 C0 4.70741771 0 4.70741771 0 0 Z " fill="#122038" transform="translate(156,98)"/>
<path d="M0 0 C0.33 0 0.66 0 1 0 C1 46.53 1 93.06 1 141 C-18.14 141 -37.28 141 -57 141 C-57 105.03 -57 69.06 -57 32 C-56.67 32 -56.34 32 -56 32 C-55.94465088 32.95253662 -55.88930176 33.90507324 -55.83227539 34.88647461 C-55.62403521 38.45937025 -55.41268042 42.0320763 -55.20043945 45.60473633 C-55.10943552 47.1437497 -55.01924851 48.68281163 -54.92993164 50.22192383 C-54.80055056 52.44886862 -54.66874041 54.67564726 -54.53515625 56.90234375 C-54.49181152 57.62685226 -54.4484668 58.35136078 -54.40380859 59.0978241 C-54.18017064 62.67368455 -53.88624306 66.21481084 -53.41015625 69.765625 C-52.7176097 75.44204557 -53.10770506 81.11577666 -53.375 86.8125 C-53.41882813 87.93076172 -53.46265625 89.04902344 -53.5078125 90.20117188 C-53.89560985 99.17975766 -53.89560985 99.17975766 -55 103 C-54.34 103.33 -53.68 103.66 -53 104 C-53.08378906 105.1859375 -53.16757813 106.371875 -53.25390625 107.59375 C-53.94124197 118.18971738 -53.94868041 128.41856467 -53 139 C-52.27379959 138.83734146 -51.54759918 138.67468292 -50.7993927 138.50709534 C-48.18835736 138.03411995 -45.85667157 137.87918272 -43.2097168 137.88647461 C-41.82885139 137.88658791 -41.82885139 137.88658791 -40.42008972 137.88670349 C-38.94950859 137.89444542 -38.94950859 137.89444542 -37.44921875 137.90234375 C-36.43527542 137.9037587 -35.42133209 137.90517365 -34.37666321 137.90663147 C-31.14691179 137.91221672 -27.91723038 137.92476655 -24.6875 137.9375 C-22.49414163 137.9425169 -20.30078217 137.94707948 -18.10742188 137.95117188 C-12.73825747 137.96218132 -7.36913374 137.9789048 -2 138 C-1.18807837 134.24725989 -0.91057077 130.84545686 -1 127 C-1.66 127 -2.32 127 -3 127 C-2.83773926 126.49782959 -2.67547852 125.99565918 -2.50830078 125.47827148 C-1.8159712 122.10274911 -1.85737254 118.77754494 -1.8671875 115.34765625 C-1.86623077 114.61050888 -1.86527405 113.87336151 -1.86428833 113.11387634 C-1.86360925 111.55809443 -1.86544455 110.00230964 -1.86962891 108.4465332 C-1.87497338 106.07431621 -1.86967867 103.7022892 -1.86328125 101.33007812 C-1.86394223 99.81510375 -1.8652238 98.3001295 -1.8671875 96.78515625 C-1.86516327 96.0798024 -1.86313904 95.37444855 -1.86105347 94.64772034 C-1.87848454 90.95698269 -2.23249481 87.60074245 -3 84 C-2.86020813 80.45627616 -2.60976001 76.94679081 -2.31640625 73.4140625 C-1.97631136 68.76886399 -2.22002809 64.62248061 -3 60 C-3 57 -3 57 -2 56 C-1.85149071 53.3161157 -1.76464439 50.6550015 -1.71875 47.96875 C-1.70034058 47.14483765 -1.68193115 46.32092529 -1.66296387 45.4720459 C-1.60404677 42.81477237 -1.55150239 40.15742684 -1.5 37.5 C-1.2493127 24.97734935 -0.8386457 12.49826355 0 0 Z " fill="#14233D" transform="translate(176,207)"/>
<path d="M0 0 C2.949375 -0.020625 5.89875 -0.04125 8.9375 -0.0625 C9.86812256 -0.071604 10.79874512 -0.08070801 11.75756836 -0.09008789 C12.48596924 -0.09258545 13.21437012 -0.09508301 13.96484375 -0.09765625 C14.7137085 -0.10289307 15.46257324 -0.10812988 16.23413086 -0.11352539 C18 0 18 0 19 1 C19.09981214 3.6773138 19.13879875 6.32304175 19.125 9 C19.13080078 10.12535156 19.13080078 10.12535156 19.13671875 11.2734375 C19.12661053 16.87338947 19.12661053 16.87338947 18 18 C16.65732587 18.08631874 15.31025678 18.10706473 13.96484375 18.09765625 C12.87224243 18.09390991 12.87224243 18.09390991 11.75756836 18.09008789 C10.8269458 18.08098389 9.89632324 18.07187988 8.9375 18.0625 C4.5134375 18.0315625 4.5134375 18.0315625 0 18 C0 12.06 0 6.12 0 0 Z " fill="#1F79D5" transform="translate(119,101)"/>
<path d="M0 0 C5.94 0 11.88 0 18 0 C18 5.94 18 11.88 18 18 C12.06 18 6.12 18 0 18 C0 12.06 0 6.12 0 0 Z " fill="#1F72CB" transform="translate(156,138)"/>
<path d="M0 0 C2 1.8125 2 1.8125 4 4 C4 4.99 4 5.98 4 7 C4.7425 7.20625 5.485 7.4125 6.25 7.625 C9.79601423 9.39800711 10.87580398 11.7109223 13 15 C16.44535421 17.37432395 19.59482649 17.24224138 23.69628906 17.22705078 C24.36011597 17.22734283 25.02394287 17.22763489 25.70788574 17.22793579 C27.89393351 17.22654658 30.07963704 17.21100503 32.265625 17.1953125 C33.78448297 17.19158091 35.30334335 17.18873463 36.82220459 17.18673706 C40.81382937 17.1791121 44.80530789 17.15947344 48.796875 17.1373291 C52.87237571 17.11684614 56.94790012 17.10773011 61.0234375 17.09765625 C69.01569201 17.07622641 77.00782779 17.04210426 85 17 C84.01 14.525 84.01 14.525 83 12 C80.87635519 11.77390663 80.87635519 11.77390663 79.375 13.5 C78.694375 14.2425 78.694375 14.2425 78 15 C77.06576355 11.98968256 76.95550089 11.13349732 78 8 C76.62750037 5.32323453 76.62750037 5.32323453 75 3 C75.66 2.67 76.32 2.34 77 2 C77.44730469 2.51949219 77.89460938 3.03898437 78.35546875 3.57421875 C81.09679897 6.73639284 83.81810201 9.82214418 86.8125 12.75 C88.83575632 14.83106365 89.79950564 16.41431983 91 19 C80.90777181 19.30251356 70.81663791 19.53283698 60.72078323 19.67355824 C56.03145399 19.74113598 51.34524689 19.83261426 46.65771484 19.98071289 C42.12513862 20.12300343 37.59554411 20.19989744 33.06090546 20.23340416 C31.33987236 20.25724663 29.61898507 20.30381269 27.89923859 20.37449074 C13.79873756 20.93042111 13.79873756 20.93042111 8.29333496 16.19515991 C3.76537574 11.66046675 0.17295095 6.56548929 -3 1 C-2.01 0.67 -1.02 0.34 0 0 Z " fill="#10203A" transform="translate(292,329)"/>
<path d="M0 0 C14 0 14 0 17.0703125 2.10546875 C17.70710938 3.06066406 18.34390625 4.01585937 19 5 C19.80179688 6.00675781 20.60359375 7.01351562 21.4296875 8.05078125 C22.24739986 9.13606057 23.06243985 10.22335781 23.875 11.3125 C30.82064477 21.75514385 30.82064477 21.75514385 41 28 C40.34 28.99 39.68 29.98 39 31 C38.01 31 37.02 31 36 31 C36 30.34 36 29.68 36 29 C35.01 28.67 34.02 28.34 33 28 C33 27.34 33 26.68 33 26 C30.35153397 23.63785462 28.38483604 22.12827868 25 21 C24.525625 19.88625 24.05125 18.7725 23.5625 17.625 C22.03951419 14.09167292 21.22818847 12.89238634 18 11 C17.67 11.66 17.34 12.32 17 13 C15.23537317 9.91190305 15 8.76687864 15 5 C9.95902516 2.55152651 7.1554311 3.28152297 2 5 C2.00444122 5.6072139 2.00888245 6.2144278 2.01345825 6.84004211 C2.05764612 13.15009207 2.08784749 19.4600982 2.10986328 25.77026367 C2.11993155 28.12640162 2.13358706 30.48252704 2.15087891 32.83862305 C2.17509076 36.22187386 2.18647478 39.60495972 2.1953125 42.98828125 C2.20563507 44.04461258 2.21595764 45.10094391 2.22659302 46.18928528 C2.22674408 47.17007553 2.22689514 48.15086578 2.22705078 49.16137695 C2.231492 50.02519485 2.23593323 50.88901276 2.24050903 51.77900696 C2 54 2 54 0 57 C0 38.19 0 19.38 0 0 Z " fill="#1D77D3" transform="translate(121,139)"/>
<path d="M0 0 C0.33 0 0.66 0 1 0 C1 29.7 1 59.4 1 90 C0.01 90.495 0.01 90.495 -1 91 C-4.73532619 85.39701072 -3.28647341 77.6776783 -2.4375 71.1875 C-1.9285114 67.29232333 -2.30177834 63.8790092 -3 60 C-3 57 -3 57 -2 56 C-1.85149071 53.3161157 -1.76464439 50.6550015 -1.71875 47.96875 C-1.69113586 46.73288147 -1.69113586 46.73288147 -1.66296387 45.4720459 C-1.60404677 42.81477237 -1.55150239 40.15742684 -1.5 37.5 C-1.2493127 24.97734935 -0.8386457 12.49826355 0 0 Z " fill="#173D71" transform="translate(176,207)"/>
<path d="M0 0 C0.66 0 1.32 0 2 0 C1.5359375 0.8971875 1.5359375 0.8971875 1.0625 1.8125 C-0.10209704 4.08956772 -0.10209704 4.08956772 -1 7 C-2.62560269 8.70674293 -4.2984095 10.36900481 -6 12 C-7.15048828 13.20269531 -7.15048828 13.20269531 -8.32421875 14.4296875 C-13.20251995 19.47731816 -18.10164293 23.76310674 -23.96875 27.625 C-26.10130032 28.97517931 -26.10130032 28.97517931 -28 31 C-37.27842036 36.12215635 -46.7289156 38.75855668 -57 41 C-57 41.66 -57 42.32 -57 43 C-56.34 43.66 -55.68 44.32 -55 45 C-53 47 -53 47 -53 49 C-53.99 49 -54.98 49 -56 49 C-57.36176581 47.01924973 -58.69593116 45.01920337 -60 43 C-60.66 43 -61.32 43 -62 43 C-62.33 41.35 -62.66 39.7 -63 38 C-61.68 38 -60.36 38 -59 38 C-46.76111725 35.53292791 -32.72758661 32.26178589 -23 24 C-22.505 22.515 -22.505 22.515 -22 21 C-21.401875 20.87625 -20.80375 20.7525 -20.1875 20.625 C-17.02188895 19.7205397 -15.96061884 17.54880449 -14 15 C-13.34 15 -12.68 15 -12 15 C-11.67 14.01 -11.34 13.02 -11 12 C-9.69112542 10.64264858 -8.35147138 9.31494512 -7 8 C-5.40082433 6.18093767 -3.83365765 4.33751424 -2.26953125 2.48828125 C-1 1 -1 1 0 0 Z " fill="#0E1D34" transform="translate(370,228)"/>
<path d="M0 0 C0.33 0 0.66 0 1 0 C1.05534912 0.95253662 1.11069824 1.90507324 1.16772461 2.88647461 C1.37596479 6.45937025 1.58731958 10.0320763 1.79956055 13.60473633 C1.89056448 15.1437497 1.98075149 16.68281163 2.07006836 18.22192383 C2.19944944 20.44886862 2.33125959 22.67564726 2.46484375 24.90234375 C2.50818848 25.62685226 2.5515332 26.35136078 2.59619141 27.0978241 C2.81982936 30.67368455 3.11375694 34.21481084 3.58984375 37.765625 C4.2823903 43.44204557 3.89229494 49.11577666 3.625 54.8125 C3.58117187 55.93076172 3.53734375 57.04902344 3.4921875 58.20117188 C3.10439015 67.17975766 3.10439015 67.17975766 2 71 C2.66 71.33 3.32 71.66 4 72 C3.67 77.94 3.34 83.88 3 90 C0.0729458 87.0729458 0.53577423 83.87929523 0.38110352 79.94189453 C0.343434 79.13564699 0.30576448 78.32939945 0.26695347 77.49872017 C-0.08651818 69.30875275 -0.12768771 61.12570054 -0.09765625 52.9296875 C-0.0957831 51.38599698 -0.09436346 49.84230584 -0.09336853 48.2986145 C-0.0896138 44.30395768 -0.07984697 40.30933927 -0.06866455 36.31469727 C-0.05829572 32.21110554 -0.05383834 28.1075074 -0.04882812 24.00390625 C-0.03821567 16.00258686 -0.02122807 8.00129825 0 0 Z " fill="#122A4F" transform="translate(119,239)"/>
<path d="M0 0 C-0.33 0.99 -0.66 1.98 -1 3 C16.82 3 34.64 3 53 3 C53.33 1.68 53.66 0.36 54 -1 C56.375 -0.8125 56.375 -0.8125 59 0 C60.1640625 2.55078125 60.1640625 2.55078125 61 5 C52.2989212 5.15369908 43.59777123 5.30188069 34.89647865 5.4429636 C30.85638906 5.50864428 26.81635042 5.57624552 22.77636719 5.64819336 C18.87962593 5.71752025 14.98283167 5.78185785 11.08594894 5.84269524 C9.59713104 5.86682338 8.10834145 5.89276784 6.61958694 5.92053413 C4.53891684 5.95903375 2.45824086 5.99115044 0.37744141 6.02172852 C-0.80836517 6.04171402 -1.99417175 6.06169952 -3.21591187 6.08229065 C-6 6 -6 6 -8 5 C-8 5.66 -8 6.32 -8 7 C-8.66 6.67 -9.32 6.34 -10 6 C-6.47379032 -1.53326613 -6.47379032 -1.53326613 0 0 Z " fill="#1860B5" transform="translate(184,202)"/>
<path d="M0 0 C4.55907987 2.04372546 7.21272648 4.88545337 10 9 C10 9.66 10 10.32 10 11 C10.556875 11.20625 11.11375 11.4125 11.6875 11.625 C14.87277155 13.51894524 16.70517652 16.11676025 19 19 C19.8971875 19.86625 19.8971875 19.86625 20.8125 20.75 C22 22 22 22 22 24 C22.928125 24.20625 23.85625 24.4125 24.8125 24.625 C28.88236979 26.38063011 29.25469495 28.0333976 31 32 C32.28965176 33.37562854 33.62689293 34.70766393 35 36 C36.67067133 37.99665598 38.33752986 39.99651034 40 42 C40.598125 42.5775 41.19625 43.155 41.8125 43.75 C43 45 43 45 43 47 C43.99 47.33 44.98 47.66 46 48 C46 48.66 46 49.32 46 50 C46.66 50 47.32 50 48 50 C49.66666667 52 51.33333333 54 53 56 C53.66 56 54.32 56 55 56 C58 61.75 58 61.75 58 64 C59.32 64.66 60.64 65.32 62 66 C61.34 66.66 60.68 67.32 60 68 C60 67.34 60 66.68 60 66 C59.12214844 65.62488281 59.12214844 65.62488281 58.2265625 65.2421875 C55.70467294 63.83523859 54.24913938 62.31287196 52.375 60.125 C51.78460938 59.44695312 51.19421875 58.76890625 50.5859375 58.0703125 C49.08681913 56.11333531 48.01430932 54.23951463 47 52 C46.34 52 45.68 52 45 52 C43.73046875 50.77734375 43.73046875 50.77734375 42.1875 48.9375 C41.57519531 48.21691406 40.96289062 47.49632812 40.33203125 46.75390625 C39.56246094 45.84511719 38.79289062 44.93632812 38 44 C35.79682973 41.45384665 33.58497855 38.91524462 31.375 36.375 C28.30184604 32.83923039 25.23682303 29.3006219 22.25 25.69140625 C19.4849387 22.38389369 16.45769086 19.42265021 13.375 16.4140625 C1.59839246 4.79517738 1.59839246 4.79517738 0 0 Z " fill="#0E1D34" transform="translate(179,208)"/>
<path d="M0 0 C5.61 0 11.22 0 17 0 C16.67 0.66 16.34 1.32 16 2 C9.07 1.505 9.07 1.505 2 1 C2.04600342 2.9480957 2.09200684 4.89619141 2.1394043 6.90332031 C2.28782371 13.34118555 2.42204484 19.7792244 2.54658794 26.21759415 C2.62261557 30.12104418 2.70433174 34.02420185 2.79907227 37.92724609 C2.89029963 41.69419804 2.96655272 45.46118337 3.03244972 49.22866058 C3.06021267 50.66567023 3.0933622 52.10258626 3.13199425 53.53934479 C3.18519655 55.55227042 3.2174463 57.56571677 3.2487793 59.57910156 C3.27320602 60.72493713 3.29763275 61.87077271 3.32279968 63.05133057 C3 66 3 66 0 70 C0 46.9 0 23.8 0 0 Z " fill="#2569AE" transform="translate(119,138)"/>
<path d="M0 0 C1.37478516 0.01740234 1.37478516 0.01740234 2.77734375 0.03515625 C3.69644531 0.04417969 4.61554688 0.05320313 5.5625 0.0625 C6.27277344 0.07410156 6.98304688 0.08570313 7.71484375 0.09765625 C9.12322415 4.9487443 8.37694835 9.16865531 7.71484375 14.09765625 C4.41484375 14.09765625 1.11484375 14.09765625 -2.28515625 14.09765625 C-2.479095 11.95239526 -2.66514301 9.80641948 -2.84765625 7.66015625 C-3.00427734 5.86771484 -3.00427734 5.86771484 -3.1640625 4.0390625 C-3.20402344 3.06839844 -3.24398437 2.09773437 -3.28515625 1.09765625 C-2.28515625 0.09765625 -2.28515625 0.09765625 0 0 Z " fill="#177CE5" transform="translate(160.28515625,139.90234375)"/>
<path d="M0 0 C0.80302299 0.21241585 0.80302299 0.21241585 1.62226868 0.42912292 C7.45164064 1.8620928 12.8694118 2.26727823 18.85546875 2.23828125 C20.71289806 2.2536857 22.5703201 2.26998818 24.42773438 2.28710938 C27.31779196 2.30360429 30.2073109 2.3124518 33.09741211 2.30541992 C35.91320261 2.30279881 38.72739262 2.33090097 41.54296875 2.36328125 C42.83221504 2.34797112 42.83221504 2.34797112 44.14750671 2.33235168 C48.38760504 2.40126877 51.16501895 2.69172019 54.53637695 5.39526367 C57.76349858 8.80723083 57.76349858 8.80723083 58 12 C53.25 11.125 53.25 11.125 51 10 C49.875 7.9375 49.875 7.9375 49 6 C47.82493896 5.98018066 46.64987793 5.96036133 45.43920898 5.93994141 C41.05748968 5.86356404 36.67608859 5.77489723 32.29467773 5.68261719 C30.40248929 5.64445975 28.51023158 5.60958433 26.61791992 5.578125 C23.88956028 5.53218577 21.16167207 5.47424035 18.43359375 5.4140625 C17.59477158 5.40251129 16.7559494 5.39096008 15.89170837 5.37905884 C10.9262116 5.25577668 6.66038762 4.78348945 2 3 C1.34 2.01 0.68 1.02 0 0 Z " fill="#2263B5" transform="translate(155,163)"/>
<path d="M0 0 C1.32 0.33 2.64 0.66 4 1 C4.33 2.32 4.66 3.64 5 5 C5.763125 5.0825 6.52625 5.165 7.3125 5.25 C12.42398799 6.67646176 14.75952318 12.68029415 17.5 16.9765625 C19.00857229 19.24988352 19.00857229 19.24988352 22 21 C22 21.66 22 22.32 22 23 C22.639375 23.268125 23.27875 23.53625 23.9375 23.8125 C26 25 26 25 27 28 C27.66 28 28.32 28 29 28 C30.35803676 29.71659432 31.49830258 31.53184882 32.68359375 33.37109375 C34.00013286 35.29953716 34.00013286 35.29953716 37 36 C37 36.66 37 37.32 37 38 C37.99 38.33 38.98 38.66 40 39 C39.67 40.32 39.34 41.64 39 43 C38.67 42.34 38.34 41.68 38 41 C35.98330173 39.86649466 35.98330173 39.86649466 34 39 C34 38.34 34 37.68 34 37 C33.01 36.67 32.02 36.34 31 36 C26 30.53488372 26 30.53488372 26 28 C25.42894531 27.77570313 24.85789062 27.55140625 24.26953125 27.3203125 C21.34057404 25.61637526 19.77581107 23.53824573 17.6875 20.875 C13.06470829 15.07563568 8.42037507 9.32959721 3.125 4.125 C1 2 1 2 0 0 Z " fill="#0F1D33" transform="translate(240,276)"/>
<path d="M0 0 C21.78 0 43.56 0 66 0 C66 0.33 66 0.66 66 1 C62.41711699 1.82028328 59.11943308 2.12207449 55.44702148 2.11352539 C54.35916855 2.11344986 53.27131561 2.11337433 52.15049744 2.11329651 C50.98579422 2.10813522 49.821091 2.10297394 48.62109375 2.09765625 C47.41687271 2.0962413 46.21265167 2.09482635 44.97193909 2.09336853 C41.12710067 2.08777723 37.28232075 2.07523517 33.4375 2.0625 C30.84440189 2.05748308 28.25130286 2.05292051 25.65820312 2.04882812 C19.95058032 2.03899932 14.24298759 2.02479145 8.53538513 2.00672913 C6.35692994 2.00094732 4.17846287 2 2 2 C1.34 1.34 0.68 0.68 0 0 Z " fill="#042A5E" transform="translate(179,207)"/>
<path d="M0 0 C4.62 0 9.24 0 14 0 C14.66 1.65 15.32 3.3 16 5 C15.113125 4.649375 14.22625 4.29875 13.3125 3.9375 C8.84291686 2.67252364 6.30090452 3.56636516 2 5 C2.00444122 5.6072139 2.00888245 6.2144278 2.01345825 6.84004211 C2.05764612 13.15009207 2.08784749 19.4600982 2.10986328 25.77026367 C2.11993155 28.12640162 2.13358706 30.48252704 2.15087891 32.83862305 C2.17509076 36.22187386 2.18647478 39.60495972 2.1953125 42.98828125 C2.20563507 44.04461258 2.21595764 45.10094391 2.22659302 46.18928528 C2.22674408 47.17007553 2.22689514 48.15086578 2.22705078 49.16137695 C2.231492 50.02519485 2.23593323 50.88901276 2.24050903 51.77900696 C2 54 2 54 0 57 C0 38.19 0 19.38 0 0 Z " fill="#1B7DE2" transform="translate(121,139)"/>
<path d="M0 0 C2.16577207 3.2486581 2.24955466 4.18601347 2.1875 7.9375 C2.18105469 8.79214844 2.17460937 9.64679688 2.16796875 10.52734375 C2.01129278 12.83375977 1.63117954 14.78415693 1 17 C0.88269531 17.63679688 0.76539063 18.27359375 0.64453125 18.9296875 C-0.21911218 21.70381487 -1.65376364 23.74522834 -3.3125 26.125 C-3.90675781 26.99382812 -4.50101562 27.86265625 -5.11328125 28.7578125 C-6.98686384 30.98438891 -8.3234064 31.94827007 -11 33 C-11 33.66 -11 34.32 -11 35 C-13.05412248 36.03758749 -15.11869605 37.0545034 -17.1875 38.0625 C-18.33605469 38.63097656 -19.48460937 39.19945312 -20.66796875 39.78515625 C-24.11316577 41.04125973 -25.57908399 41.12742053 -29 40 C-29 39.67 -29 39.34 -29 39 C-28.3709375 38.84144531 -27.741875 38.68289062 -27.09375 38.51953125 C-18.5363707 36.18687213 -12.36684567 33.22459994 -7 26 C-6.34 26 -5.68 26 -5 26 C-4.516941 24.60550891 -4.03874483 23.20933293 -3.5625 21.8125 C-3.29566406 21.03519531 -3.02882813 20.25789063 -2.75390625 19.45703125 C-1.3716976 14.95232015 -0.89813702 10.96116297 -1 6.25 C-1.03742459 4.50040022 -1.04696295 2.74936974 -1 1 C-0.67 0.67 -0.34 0.34 0 0 Z " fill="#0E1D32" transform="translate(325,179)"/>
<path d="M0 0 C0.33 0 0.66 0 1 0 C1.05534912 0.95253662 1.11069824 1.90507324 1.16772461 2.88647461 C1.37596479 6.45937025 1.58731958 10.0320763 1.79956055 13.60473633 C1.89056448 15.1437497 1.98075149 16.68281163 2.07006836 18.22192383 C2.19944944 20.44886856 2.33127869 22.67564618 2.46484375 24.90234375 C2.50814316 25.62703354 2.55144257 26.35172333 2.59605408 27.09837341 C2.81917045 30.66949715 3.11401616 34.20451145 3.59375 37.75 C4.29880423 43.5119949 3.85269853 49.28187876 3.5625 55.0625 C3.51029297 56.21427734 3.45808594 57.36605469 3.40429688 58.55273438 C3.27576087 61.36884135 3.1408555 64.18448692 3 67 C2.67 67 2.34 67 2 67 C1.27347024 56.96051764 0.74857032 46.93719868 0.4375 36.875 C0.40573166 35.88099686 0.40573166 35.88099686 0.37332153 34.86691284 C0.00498899 23.24221217 -0.11668579 11.62968397 0 0 Z " fill="#13396C" transform="translate(119,239)"/>
<path d="M0 0 C0.99 0 1.98 0 3 0 C3 0.66 3 1.32 3 2 C3.99 2.33 4.98 2.66 6 3 C7.47265625 4.4609375 7.47265625 4.4609375 9.0625 6.375 C12.06372551 9.91375844 15.12741584 13.37993668 18.25 16.8125 C19.08015625 17.72644531 19.9103125 18.64039063 20.765625 19.58203125 C22.04916822 20.97104043 23.3588954 22.33868733 24.734375 23.63671875 C26 25 26 25 27 28 C25.68 28 24.36 28 23 28 C21.4375 25.625 21.4375 25.625 20 23 C19.01 22.34 18.02 21.68 17 21 C16.5875 20.2575 16.175 19.515 15.75 18.75 C14.11329975 16.17804246 12.81903824 14.89030848 10.5 13 C7.55723911 10.58779977 5.81830779 8.37685733 4 5 C2.68962066 3.31522656 1.36176922 1.64351457 0 0 Z " fill="#0F1C31" transform="translate(340,303)"/>
<path d="M0 0 C0.99 0.33 1.98 0.66 3 1 C3.99 3.475 3.99 3.475 5 6 C-17.11 6.33 -39.22 6.66 -62 7 C-62.33 6.34 -62.66 5.68 -63 5 C-41.55 5 -20.1 5 2 5 C1.34 3.35 0.68 1.7 0 0 Z " fill="#1B5194" transform="translate(240,201)"/>
<path d="M0 0 C6.47973193 9.71959789 4.20495694 24.7809723 4 36 C3.34 36 2.68 36 2 36 C1.96241577 35.13834229 1.96241577 35.13834229 1.92407227 34.25927734 C1.80730125 31.63100279 1.68494581 29.00301605 1.5625 26.375 C1.52318359 25.47136719 1.48386719 24.56773437 1.44335938 23.63671875 C1.22396424 19.01254431 0.86577467 14.557062 0 10 C-0.22355119 8.39788317 -0.43345311 6.79375753 -0.625 5.1875 C-0.72039062 4.41792969 -0.81578125 3.64835938 -0.9140625 2.85546875 C-0.94242187 2.24316406 -0.97078125 1.63085938 -1 1 C-0.67 0.67 -0.34 0.34 0 0 Z " fill="#0A192D" transform="translate(379,160)"/>
<path d="M0 0 C24.09 0 48.18 0 73 0 C73 0.33 73 0.66 73 1 C48.91 1 24.82 1 0 1 C0 0.67 0 0.34 0 0 Z " fill="#000000" transform="translate(306,349)"/>
<path d="M0 0 C12.54 0 25.08 0 38 0 C38 0.99 38 1.98 38 3 C37.31679688 2.83757812 36.63359375 2.67515625 35.9296875 2.5078125 C26.22353271 0.82541234 15.82296142 2.04360773 6.046875 2.87890625 C3 3 3 3 0 2 C0 1.34 0 0.68 0 0 Z " fill="#162940" transform="translate(258,218)"/>
<path d="M0 0 C1.32 0.99 2.64 1.98 4 3 C5.2684375 3.4640625 5.2684375 3.4640625 6.5625 3.9375 C9.41490756 5.18085714 10.51740115 6.2819021 12 9 C11.67 9.99 11.34 10.98 11 12 C9.35 12 7.7 12 6 12 C5.67 10.68 5.34 9.36 5 8 C4.34 8 3.68 8 3 8 C2.67 8.66 2.34 9.32 2 10 C1.34 6.7 0.68 3.4 0 0 Z " fill="#1560B9" transform="translate(225,188)"/>
<path d="M0 0 C8.426228 2.95367778 16.37652546 10.11031265 22 17 C22 17.66 22 18.32 22 19 C21.01 18.67 20.02 18.34 19 18 C19 17.34 19 16.68 19 16 C18.4225 15.9175 17.845 15.835 17.25 15.75 C14.31530475 14.77176825 13.08503877 13.27458775 11 11 C7.60473928 7.2801865 7.60473928 7.2801865 3.25 4.9375 C2.5075 4.628125 1.765 4.31875 1 4 C0.1875 1.875 0.1875 1.875 0 0 Z " fill="#101F37" transform="translate(341,112)"/>
<path d="M0 0 C0.99 0 1.98 0 3 0 C0.58913002 10.87831577 -2.90543523 21.07744652 -8 31 C-8.66 30.01 -9.32 29.02 -10 28 C-9.4225 26.906875 -8.845 25.81375 -8.25 24.6875 C-4.42539338 16.99745466 -1.79250765 9.55908264 -1 1 C-0.67 0.67 -0.34 0.34 0 0 Z " fill="#0C192E" transform="translate(381,197)"/>
<path d="M0 0 C0.99 0 1.98 0 3 0 C3 0.66 3 1.32 3 2 C3.66 2 4.32 2 5 2 C9.84103667 8.41685799 13.65372698 16.33083893 16 24 C15.67 24.99 15.34 25.98 15 27 C12.69646721 24.69646721 12.06832843 22.52225733 10.99609375 19.5 C9.35189396 15.37338091 7.25565319 11.47680298 5.20703125 7.5390625 C4 5 4 5 4 3 C2.68 2.34 1.36 1.68 0 1 C0 0.67 0 0.34 0 0 Z " fill="#0D1D34" transform="translate(363,133)"/>
<path d="M0 0 C0.33 0 0.66 0 1 0 C1 13.86 1 27.72 1 42 C0.67 42 0.34 42 0 42 C0 40.02 0 38.04 0 36 C-0.66 36 -1.32 36 -2 36 C-1.835 35.50113281 -1.67 35.00226563 -1.5 34.48828125 C-0.80954562 31.05219189 -0.94053334 27.67373304 -1 24.1875 C-1.07751244 16.07776047 -0.65883284 8.08246717 0 0 Z " fill="#0F284D" transform="translate(175,298)"/>
<path d="M0 0 C15.18 0 30.36 0 46 0 C46 0.33 46 0.66 46 1 C30.82 1 15.64 1 0 1 C0 0.67 0 0.34 0 0 Z " fill="#000000" transform="translate(123,349)"/>
<path d="M0 0 C4.28904235 1.5885342 6.32345526 4.43127368 9 8 C9 8.66 9 9.32 9 10 C9.598125 10.2475 10.19625 10.495 10.8125 10.75 C13.28647521 12.16370012 14.43370255 13.65055383 16 16 C14.33333333 16 12.66666667 16 11 16 C10 14.33333333 9 12.66666667 8 11 C7.13375 10.13375 6.2675 9.2675 5.375 8.375 C3 6 3 6 2 3 C1.34 3 0.68 3 0 3 C0 2.01 0 1.02 0 0 Z " fill="#0D1B32" transform="translate(317,277)"/>
<path d="M0 0 C1.17539996 0.92652701 2.34010577 1.86663387 3.5 2.8125 C4.1496875 3.33457031 4.799375 3.85664063 5.46875 4.39453125 C7 6 7 6 7 9 C7.33 9.66 7.66 10.32 8 11 C6.02 11.99 6.02 11.99 4 13 C4 12.34 4 11.68 4 11 C3.34 10.67 2.68 10.34 2 10 C1.61250787 7.67504723 1.28241883 5.3400417 1 3 C0.67 2.01 0.34 1.02 0 0 Z " fill="#10223E" transform="translate(335,296)"/>
<path d="M0 0 C3.75257718 -0.34907695 5.56588078 -0.27011863 8.8125 1.75 C10.96634616 3.96538462 11.67715014 4.98673462 12 8 C7.25 7.125 7.25 7.125 5 6 C4.690625 5.360625 4.38125 4.72125 4.0625 4.0625 C3.04654078 1.68028507 3.04654078 1.68028507 0 0 Z " fill="#1C62B7" transform="translate(201,167)"/>
<path d="M0 0 C3.34944548 5.02416822 3.09834146 9.09951257 3 15 C2.01 15.495 2.01 15.495 1 16 C0.35514814 12.40725395 -0.17945373 8.80973328 -0.625 5.1875 C-0.72039062 4.41792969 -0.81578125 3.64835938 -0.9140625 2.85546875 C-0.94242187 2.24316406 -0.97078125 1.63085938 -1 1 C-0.67 0.67 -0.34 0.34 0 0 Z " fill="#0E1D36" transform="translate(379,160)"/>
<path d="M0 0 C4.59306496 1.4859916 7.43569245 3.85014682 11 7 C10.01 8.485 10.01 8.485 9 10 C8.01 9.34 7.02 8.68 6 8 C5.34 8 4.68 8 4 8 C3.71125 7.236875 3.4225 6.47375 3.125 5.6875 C2.03730987 2.84970692 2.03730987 2.84970692 0 0 Z " fill="#175FB7" transform="translate(213,176)"/>
<path d="M0 0 C4.42761914 1.39153744 6.9556255 3.52071486 10 7 C10 7.66 10 8.32 10 9 C10.66 9.33 11.32 9.66 12 10 C11.01 10.33 10.02 10.66 9 11 C8.51789063 10.43410156 8.03578125 9.86820312 7.5390625 9.28515625 C6.90742188 8.55167969 6.27578125 7.81820313 5.625 7.0625 C4.99851562 6.33160156 4.37203125 5.60070312 3.7265625 4.84765625 C2.12252286 2.91619094 2.12252286 2.91619094 0 2 C0 1.34 0 0.68 0 0 Z " fill="#0F1D32" transform="translate(279,319)"/>
<path d="M0 0 C5.65253308 1.37031105 8.5113541 5.67689413 12 10 C11.67 10.66 11.34 11.32 11 12 C10.34 11.67 9.68 11.34 9 11 C9 10.01 9 9.02 9 8 C8.38125 7.690625 7.7625 7.38125 7.125 7.0625 C5.75 6.375 4.375 5.6875 3 5 C3 4.34 3 3.68 3 3 C2.34 3 1.68 3 1 3 C0.67 2.01 0.34 1.02 0 0 Z " fill="#0C1D37" transform="translate(246,208)"/>
<path d="M0 0 C3.7910119 1.44950455 7.3874638 3.15172566 11 5 C10.01 6.485 10.01 6.485 9 8 C8.01 8 7.02 8 6 8 C6 7.34 6 6.68 6 6 C5.01 5.67 4.02 5.34 3 5 C3 4.34 3 3.68 3 3 C1.54166642 1.37485532 1.54166642 1.37485532 0 0 Z " fill="#1675DE" transform="translate(151,162)"/>
<path d="M0 0 C3.59852875 2.7760079 6.91774326 5.65354983 10 9 C10 9.66 10 10.32 10 11 C8.68 11 7.36 11 6 11 C6 10.34 6 9.68 6 9 C5.34 8.67 4.68 8.34 4 8 C3.33333333 6.66666667 2.66666667 5.33333333 2 4 C1.34 3.67 0.68 3.34 0 3 C0 2.01 0 1.02 0 0 Z " fill="#101A29" transform="translate(373,337)"/>
<path d="M0 0 C1.43931117 0.45261358 2.87638999 0.91232979 4.3125 1.375 C5.11300781 1.63023437 5.91351563 1.88546875 6.73828125 2.1484375 C9 3 9 3 12 5 C12 5.66 12 6.32 12 7 C11.34 6.731875 10.68 6.46375 10 6.1875 C6.35060933 4.74294953 2.67754567 3.37128822 -1 2 C-0.67 1.34 -0.34 0.68 0 0 Z " fill="#0E1A2E" transform="translate(301,155)"/>
<path d="M0 0 C4.43458973 1.3937282 6.87378374 3.60582235 10 7 C6.83976631 6.29772585 3.88719595 5.48261414 1 4 C0.1875 1.875 0.1875 1.875 0 0 Z " fill="#0D192E" transform="translate(341,112)"/>
<path d="M0 0 C3.26008643 3.16952847 6.22237877 6.39937989 9 10 C5.35217412 9.10830923 3.45323095 8.58920024 1.125 5.5625 C0 3 0 3 0 0 Z " fill="#2169B6" transform="translate(146,153)"/>
<path d="M0 0 C2.88437779 1.29299694 4.87219421 2.65941363 7 5 C6.67 5.99 6.34 6.98 6 8 C4.99403703 7.0479279 3.99538437 6.08812654 3 5.125 C2.443125 4.59132812 1.88625 4.05765625 1.3125 3.5078125 C0 2 0 2 0 0 Z " fill="#0F203E" transform="translate(179,208)"/>
<path d="M0 0 C-0.33 0.99 -0.66 1.98 -1 3 C-2.98 3 -4.96 3 -7 3 C-7 2.01 -7 1.02 -7 0 C-4.3333581 -1.33332095 -2.83319697 -0.67102033 0 0 Z " fill="#1264C2" transform="translate(184,202)"/>
<path d="M0 0 C0.66 0 1.32 0 2 0 C3.5078125 1.53125 3.5078125 1.53125 5.125 3.5 C5.66382813 4.1496875 6.20265625 4.799375 6.7578125 5.46875 C7.16773438 5.9740625 7.57765625 6.479375 8 7 C4.0521912 7 2.81491174 5.66275435 0 3 C0 2.01 0 1.02 0 0 Z " fill="#1F5C9D" transform="translate(223,184)"/>
<path d="M0 0 C0.33 0 0.66 0 1 0 C1.33 5.28 1.66 10.56 2 16 C1.01 15.67 0.02 15.34 -1 15 C-0.67 10.05 -0.34 5.1 0 0 Z " fill="#122745" transform="translate(121,330)"/>
<path d="M0 0 C0.99 0 1.98 0 3 0 C3 0.66 3 1.32 3 2 C3.99 2.33 4.98 2.66 6 3 C7.1875 5.0625 7.1875 5.0625 8 7 C4.2047869 5.50902342 2.38957269 3.24299151 0 0 Z " fill="#09192F" transform="translate(340,303)"/>
<path d="M0 0 C1 4 1 4 1 4 Z " fill="#000000" transform="translate(175,141)"/>
<path d="M0 0 C2 1 2 1 2 1 Z " fill="#000000" transform="translate(174,349)"/>
<path d="" fill="#000000" transform="translate(0,0)"/>
<path d="" fill="#000000" transform="translate(0,0)"/>
<path d="" fill="#000000" transform="translate(0,0)"/>
</svg>
